<?xml version="1.0" standalone="no"?>
<!DOCTYPE svg PUBLIC "-//W3C//DTD SVG 20010904//EN"
 "http://www.w3.org/TR/2001/REC-SVG-20010904/DTD/svg10.dtd">
<svg version="1.0" xmlns="http://www.w3.org/2000/svg"
 width="225.000000pt" height="225.000000pt" viewBox="0 0 225.000000 225.000000"
 preserveAspectRatio="xMidYMid meet">
<metadata>
Created by potrace 1.11, written by Peter Selinger 2001-2013
</metadata>
<g transform="translate(0.000000,225.000000) scale(0.100000,-0.100000)"
fill="#000000" stroke="none">
<path d="M917 2235 c-466 -88 -823 -447 -903 -908 -24 -135 -15 -359 20 -491
83 -319 288 -572 581 -717 165 -81 278 -109 465 -116 341 -12 625 99 852 335
142 148 231 303 284 497 26 92 28 114 27 285 0 166 -2 195 -25 281 -55 206
-139 357 -279 503 -147 154 -325 260 -526 313 -125 32 -372 41 -496 18z"/>
</g>
</svg>
